<svg xmlns="http://www.w3.org/2000/svg" viewBox="0 0 64 64">
  <g fill="none" fill-rule="evenodd" stroke-linejoin="round" transform="translate(2 1)">
    <path stroke="#C3CD97" d="M14 30C14 32.2053333 12.2106667 34 10 34 7.78933333 34 6 32.2053333 6 30 6 27.7893333 7.78933333 26 10 26 12.2106667 26 14 27.7893333 14 30L14 30zM56 16.5C56 17.8816667 54.8816667 19 53.5 19 52.1183333 19 51 17.8816667 51 16.5 51 15.12 52.1183333 14 53.5 14 54.8816667 14 56 15.12 56 16.5L56 16.5z" opacity=".2"/>
    <path stroke="#577138" stroke-width="2" d="M7 52.5L26 33M41 18L52 7M7 14L24 21M53 34L43 30M34 52L34 36"/>
    <path stroke="#C3CD97" stroke-width="2" d="M60,35 C60,37.2053333 58.2106667,39 56,39 C53.792,39 52,37.2053333 52,35 C52,32.792 53.792,31 56,31 C58.2106667,31 60,32.792 60,35 L60,35 Z"/>
    <path stroke="#C3CD97" d="M48 43C48 44.654 46.658 46 45 46 43.344 46 42 44.654 42 43 42 41.344 43.344 40 45 40 46.658 40 48 41.344 48 43L48 43zM19 60.5C19 61.327 18.329 62 17.5 62 16.672 62 16 61.327 16 60.5 16 59.672 16.672 59 17.5 59 18.329 59 19 59.672 19 60.5L19 60.5zM40 9.5C40 10.327 39.329 11 38.5 11 37.672 11 37 10.327 37 9.5 37 8.672 37.672 8 38.5 8 39.329 8 40 8.672 40 9.5L40 9.5z" opacity=".2"/>
    <path stroke="#FA8151" stroke-width="2" d="M8,13 C8,15.2106667 6.21066667,17 4,17 C1.78933333,17 0,15.2106667 0,13 C0,10.792 1.78933333,9 4,9 C6.21066667,9 8,10.792 8,13 L8,13 Z"/>
    <path stroke="#FA8151" d="M26,4 C26,5.658 24.658,7 23,7 C21.342,7 20,5.658 20,4 C20,2.344 21.342,1 23,1 C24.658,1 26,2.344 26,4 L26,4 Z" opacity=".2"/>
    <path stroke="#FA8151" stroke-width="2" d="M8,55 C8,57.2106667 6.21066667,59 4,59 C1.78933333,59 0,57.2106667 0,55 C0,52.792 1.78933333,51 4,51 C6.21066667,51 8,52.792 8,55 L8,55 Z"/>
    <path stroke="#C3CD97" stroke-width="2" d="M44 25.5C44 31.30125 39.298625 36 33.5 36 27.701375 36 23 31.30125 23 25.5 23 19.69875 27.701375 15 33.5 15 39.298625 15 44 19.69875 44 25.5L44 25.5zM38 56C38 58.2106667 36.2106667 60 34 60 31.7893333 60 30 58.2106667 30 56 30 53.792 31.7893333 52 34 52 36.2106667 52 38 53.792 38 56L38 56zM59 4C59 6.20533333 57.2106667 8 55 8 52.7893333 8 51 6.20533333 51 4 51 1.78933333 52.7893333 0 55 0 57.2106667 0 59 1.78933333 59 4L59 4z"/>
  </g>
</svg>
