<?xml version="1.0" encoding="UTF-8"?>
<svg width="371px" height="136px" viewBox="0 0 371 136" version="1.1" xmlns="http://www.w3.org/2000/svg" xmlns:xlink="http://www.w3.org/1999/xlink">
    <!-- Generator: Sketch 59.1 (86144) - https://sketch.com -->
    <title>arangodb-oasis-logo</title>
    <desc>Created with Sketch.</desc>
    <g id="arangodb-oasis-logo" stroke="none" stroke-width="1" fill="none" fill-rule="evenodd">
        <g id="ArangoDB_Oasis_RGB" fill-rule="nonzero">
            <path d="M61.1759474,79.9358827 L21.2348684,79.9358827 C9.50717443,79.9358827 0,70.4286808 0,58.7009868 C0,46.9732928 9.50717443,37.4661184 21.2348684,37.4661184 C21.6131908,37.4661184 21.9939539,37.4661184 22.3722763,37.4954079 C26.8267171,31.4349276 33.7097434,27.8811382 41.2054079,27.8811382 C47.2542047,27.8824138 53.0630586,30.2472971 57.3927237,34.4712697 C60.9825501,37.9509391 63.4182382,42.4483149 64.3709408,47.3561974 C72.6838927,48.9868517 78.3976052,56.6662295 77.570808,65.0971613 C76.7440107,73.528093 69.647309,79.9511903 61.1759474,79.9358827 L61.1759474,79.9358827 Z M21.2348684,44.7884868 C13.551207,44.788487 7.32236871,51.0173254 7.32236871,58.7009868 C7.32236871,66.3846483 13.551207,72.6134868 21.2348684,72.6134868 L61.1759474,72.6134868 C66.1546258,72.5320359 70.1479747,68.4728216 70.1479747,63.493477 C70.1479747,58.5141323 66.1546258,54.454918 61.1759474,54.3734671 L57.7051447,54.3734671 L57.4732697,50.9563618 C56.8679539,42.1182632 49.7237632,35.1961842 41.2054079,35.1961842 C35.5208092,35.1961842 30.3365724,38.2032368 27.3344013,43.2507895 L26.0505461,45.3986842 L23.5780263,44.98375 C22.8037396,44.8537998 22.0199843,44.7884868 21.2348684,44.7884868 L21.2348684,44.7884868 Z" id="Shape" fill="#577138"></path>
            <path d="M23.5780263,44.98375 C22.8037396,44.8537998 22.0199843,44.7884868 21.2348684,44.7884868 C13.551207,44.7884871 7.32236884,51.0173254 7.32236884,58.7009868 C7.32236884,66.3846483 13.551207,72.6134868 21.2348684,72.6134868 L61.1759474,72.6134868 C66.1546258,72.5320359 70.1479747,68.4728216 70.1479747,63.493477 C70.1479747,58.5141323 66.1546258,54.454918 61.1759474,54.3734671 L57.7051447,54.3734671 L57.4732697,50.9563618 C56.8679539,42.1182632 49.7237632,35.1961842 41.2054079,35.1961842 C35.5208092,35.1961842 30.3365724,38.2032368 27.3344013,43.2507895 L26.0505461,45.3986842 L23.5780263,44.98375 Z" id="Path" fill="#DDE072"></path>
            <path d="M299.660605,39.8873816 L299.660605,44.7225855 L303.917342,45.5451316 L303.917342,74.246375 L299.660605,75.0713618 L299.660605,79.8772763 L317.649224,79.8772763 C322.530803,79.8772763 326.559732,78.331443 329.736013,75.2397763 C332.912294,72.1481096 334.495553,68.1403333 334.485834,63.2164474 L334.485834,56.5872632 C334.485834,51.7056842 332.902531,47.7044167 329.736013,44.5834605 C326.569496,41.4625044 322.540566,39.8971447 317.649224,39.8873816 L299.660605,39.8873816 Z M336.733757,39.8873816 L336.733757,44.7225855 L340.990493,45.5451316 L340.990493,74.246375 L336.733757,75.0713618 L336.733757,79.8772763 L356.399197,79.8772763 C361.031816,79.8772763 364.61164,78.9009605 367.138671,76.9483289 C369.665702,74.9956974 370.928571,72.0935987 370.926776,68.2420329 C370.966939,66.1457047 370.332005,64.0920117 369.115711,62.3841382 C367.924605,60.6999934 366.129811,59.6016382 363.731329,59.0890724 C365.597719,58.3568355 367.016632,57.2674298 367.988066,55.8208553 C368.977978,54.3535775 369.495775,52.6187886 369.472066,50.8489671 C369.472066,47.2040548 368.154039,44.4663026 365.517987,42.6357105 C362.881934,40.8051184 359.210173,39.8898224 354.502704,39.8898224 L336.733757,39.8898224 L336.733757,39.8873816 Z M311.932895,46.0674605 L317.234289,46.0674605 C320.106285,46.0674605 322.35832,47.0380811 323.990395,48.9793224 C325.622469,50.9205636 326.436066,53.4378311 326.431206,56.531125 L326.431206,63.2164474 C326.431206,66.3487939 325.617588,68.8839605 323.990395,70.8219474 C322.363202,72.7599342 320.111167,73.7305548 317.234289,73.7338092 L311.932895,73.7338092 L311.932895,46.0674605 Z M349.006046,46.0674605 L354.497822,46.0674605 C356.806809,46.0674605 358.537329,46.5068026 359.689382,47.3854868 C360.841434,48.2641711 361.427224,49.6277588 361.44675,51.47625 C361.44675,53.1620219 360.86991,54.44425 359.71623,55.3229342 C358.56255,56.2016184 356.915018,56.6409605 354.773632,56.6409605 L349.006046,56.6409605 L349.006046,46.0674605 Z M349.006046,62.1766711 L356.997191,62.1766711 C359.047454,62.1766711 360.549353,62.699 361.502888,63.7436579 C362.456423,64.7883158 362.932377,66.2804518 362.930754,68.2200658 C362.930754,70.034386 362.371809,71.4077368 361.253928,72.3401184 C360.136046,73.2725 358.516175,73.7297412 356.394316,73.7118421 L349.006046,73.7118421 L349.006046,62.1766711 Z" id="Shape" fill="#577138"></path>
            <path d="M118.866447,39.8873816 L106.708875,74.6588684 L103.853151,75.0713618 L103.853151,79.8772763 L117.475197,79.8772763 L117.475197,75.0713618 L114.702461,74.5832039 L117.299461,66.4651382 L128.527092,66.4651382 L131.18023,74.5832039 L128.405053,75.0713618 L128.405053,79.8772763 L142.029539,79.8772763 L142.029539,75.0713618 L139.173816,74.6588684 L127.089467,39.8873816 L118.866447,39.8873816 Z M122.849816,49.0891579 L123.015789,49.0891579 L126.676974,60.5608684 L119.188632,60.5608684 L122.849816,49.0891579 Z M254.857474,49.5089737 L254.188697,53.9023947 C253.373925,52.6075077 252.262908,51.5249351 250.947329,50.7440132 C249.613466,49.9735961 248.093927,49.583581 246.553908,49.6163684 C242.873197,49.6163684 240.007711,51.0539934 237.957447,53.9292434 C235.907184,56.8044934 234.894257,60.5836491 234.918664,65.2667105 L234.918664,65.8427368 C234.918664,70.2182588 235.934846,73.7517083 237.967211,76.4430855 C239.999575,79.1344627 242.847162,80.4720154 246.509974,80.4557434 C247.923462,80.4834669 249.324003,80.1817992 250.600737,79.5746184 C251.814886,78.9685618 252.876254,78.0957704 253.705421,77.0215526 L253.705421,78.9741842 C253.705421,81.0976711 253.217263,82.7541535 252.240947,83.9436316 C251.264632,85.1331096 249.800158,85.7286623 247.847526,85.7302895 C246.477734,85.7393962 245.112281,85.5753777 243.783612,85.2421316 C242.467229,84.9211172 241.180401,84.4891808 239.936928,83.9509539 L238.465132,89.5769737 C239.953137,90.3120645 241.520626,90.8738708 243.136803,91.2513553 C244.696982,91.6578721 246.301227,91.8710064 247.913428,91.8859605 C252.215726,91.8859605 255.594592,90.713568 258.050026,88.3687829 C260.505461,86.0239978 261.741314,82.9022281 261.757586,79.0034737 L261.757586,73.8778158 L261.757586,73.8973421 L261.757586,55.1618421 L266.014322,54.3368553 L266.014322,49.5089737 L254.857474,49.5089737 Z M163.662257,49.6090461 C162.278874,49.588322 160.930649,50.0452012 159.844862,50.9026645 C158.670399,51.8654842 157.74876,53.1004814 157.159993,54.5003882 L156.803638,50.1582237 L145.078086,50.1582237 L145.078086,54.9934276 L149.334822,55.8184145 L149.334822,74.246375 L145.490579,75.0713618 L145.490579,79.8772763 L161.1995,79.8772763 L161.1995,75.0713618 L157.355257,74.246375 L157.355257,59.7993421 C157.730923,58.9862646 158.343474,58.3056526 159.112625,57.8467105 C160.00365,57.3597233 161.00978,57.1227389 162.024487,57.1608487 L165.321993,57.2438355 L166.171388,49.9361118 C165.784982,49.8312427 165.390731,49.7577798 164.992487,49.7164408 C164.555857,49.6458378 164.11432,49.6099273 163.67202,49.6090461 L163.662257,49.6090461 Z M181.270112,49.6088683 C179.426326,49.6010169 177.591441,49.8650232 175.824711,50.3925395 C174.981858,50.6101976 174.157553,50.8942158 173.359513,51.2419342 C170.206013,52.6380658 169.097895,53.8096447 169.097895,53.8096447 L172.898204,58.8352303 C172.898204,58.8352303 174.118599,57.5269671 177.535704,56.0600526 C178.555959,55.6635362 179.64098,55.4599396 180.735579,55.4596184 C182.3465,55.4596184 183.566895,55.8533991 184.396763,56.6409605 C185.226632,57.4285219 185.639125,58.5366404 185.634243,59.9653158 L185.634243,62.5012961 L181.553243,62.5012961 C177.230605,62.5012961 173.955066,63.6362632 171.721743,65.156875 C169.488421,66.6774868 168.368099,68.8180592 168.368099,71.6103224 C168.368099,74.339125 169.219934,76.4992237 170.923605,78.0906184 C172.627276,79.6820132 174.943586,80.4703882 177.872533,80.4557434 C179.48724,80.4874907 181.086758,80.1388241 182.541763,79.4379342 C183.871896,78.7932333 185.058214,77.8866839 186.029651,76.7725921 C186.122029,77.3119761 186.250873,77.8444758 186.415296,78.3664276 C186.5794,78.8802446 186.771701,79.3846258 186.991322,79.8772763 L196.239474,79.8772763 L196.239474,75.0713618 L193.798684,74.7418553 C193.741014,74.359319 193.704347,73.9739102 193.688849,73.5873618 L193.688849,60.0190132 C193.688849,56.6881491 192.535169,54.1253202 190.227809,52.3305263 C187.92045,50.5357325 184.936178,49.6285724 181.274993,49.6088683 L181.270112,49.6088683 Z M218.680092,49.6090461 C216.975995,49.5857803 215.297168,50.022562 213.82048,50.873375 C212.336155,51.7474639 211.081181,52.9622785 210.159296,54.4174013 L209.802941,50.1582237 L198.087151,50.1582237 L198.087151,54.9934276 L202.341447,55.8184145 L202.341447,74.246375 L198.497204,75.0713618 L198.497204,79.8772763 L213.60325,79.8772763 L213.60325,75.0713618 L210.361882,74.246375 L210.361882,58.3177829 C210.908345,57.549316 211.634963,56.9266205 212.478046,56.5042763 C213.361977,56.0550327 214.342366,55.8287891 215.33377,55.8452632 C216.960963,55.8452632 218.181357,56.2658925 218.994954,57.1071513 C219.80855,57.9484101 220.211281,59.3591864 220.203145,61.3394803 L220.203145,74.246375 L216.771395,75.0713618 L216.771395,79.8772763 L232.097112,79.8772763 L232.097112,75.0713618 L228.250428,74.246375 L228.250428,61.3101908 C228.250428,57.2828882 227.408355,54.3262785 225.724211,52.4403618 C224.040066,50.5544452 221.696908,49.6106732 218.694737,49.6090461 L218.680092,49.6090461 Z M281.471842,49.6090461 C277.094693,49.6090461 273.660502,51.0287719 271.16927,53.8682237 C268.678037,56.7076754 267.442184,60.3330614 267.461483,64.7443816 L267.461483,65.3204079 C267.461483,69.7870526 268.697564,73.4311513 271.16927,76.2527039 C273.640976,79.0742566 277.093066,80.4752697 281.525539,80.4559447 C285.881535,80.4559447 289.29864,79.0547303 291.776855,76.2527039 C294.25507,73.4506776 295.500686,69.8065789 295.513704,65.3204079 L295.513704,64.7443816 C295.513704,60.295636 294.268088,56.6613004 291.776855,53.841375 C289.285623,51.0214496 285.853059,49.6106732 281.479164,49.6090461 L281.471842,49.6090461 Z M281.479164,55.789125 C283.566853,55.789125 285.095601,56.6222478 286.065408,58.2884934 C287.035215,59.954739 287.523373,62.1067018 287.529882,64.7443816 L287.529882,65.3204079 C287.529882,68.0117851 287.041724,70.1816469 286.065408,71.8299934 C285.089092,73.4783399 283.578243,74.3025132 281.532862,74.3025132 C279.409375,74.3025132 277.870864,73.4889167 276.917329,71.8617237 C275.963794,70.2345307 275.48784,68.0557193 275.489463,65.3252895 L275.489463,64.7492632 C275.489463,62.1132105 275.965421,59.9612478 276.917329,58.293375 C277.869237,56.6255022 279.389849,55.7923794 281.479164,55.7940066 L281.479164,55.789125 Z M248.599289,55.8501447 C249.662842,55.8155153 250.716035,56.0684841 251.647836,56.5823816 C252.510365,57.0792136 253.22224,57.8003659 253.707862,58.6692566 L253.707862,71.5761513 C253.21767,72.4139557 252.504515,73.0992272 251.647836,73.5556316 C250.681284,74.0226221 249.616063,74.2487303 248.543151,74.2146447 C246.566112,74.2146447 245.13825,73.4734583 244.259566,71.9910855 C243.380882,70.5087127 242.940726,68.457636 242.939099,65.8378553 L242.939099,65.2667105 C242.939099,62.4646842 243.388204,60.1939364 244.286414,58.4544671 C245.184625,56.7149978 246.62225,55.8452632 248.599289,55.8452632 L248.599289,55.8501447 Z M181.553243,66.8776316 L185.646447,66.8776316 L185.646447,71.7860592 C185.043458,72.6179325 184.252258,73.295387 183.337461,73.7630987 C182.317816,74.2830999 181.186882,74.5469845 180.042395,74.5319474 C178.887088,74.5319474 177.980741,74.2480022 177.323355,73.6801118 C176.665969,73.1122215 176.345412,72.3246601 176.361684,71.3174276 C176.361684,70.2019868 176.801026,68.8766382 177.679711,68.0858224 C178.558395,67.2950066 179.849572,66.8654276 181.553243,66.8654276 L181.553243,66.8776316 Z" id="Shape" fill="#A3B34F"></path>
            <path d="M96.73825,30.2438224 C96.3946815,27.9649722 95.4989175,25.8047479 94.1290461,23.9514671 C92.9753137,22.4099132 91.5410773,21.0998889 89.9015987,20.0901382 C86.6138553,17.9886184 82.4181382,17.2710263 78.5934211,17.9739737 C76.2158819,18.4006625 73.9801147,19.406632 72.0838355,20.9029211 C71.5541842,15.4135855 68.8522303,10.2073816 64.8176053,6.46809211 C60.7829803,2.72880263 55.4547368,0.305098684 49.8799737,0.244078947 C47.2744038,0.207426605 44.6922092,0.739691878 42.3135263,1.80374342 C41.123881,2.33394393 40.0153294,3.02997296 39.0209013,3.87109211 C38.8542945,3.96829866 38.754822,4.14941378 38.7617961,4.34216447 C38.7940736,4.53364341 38.9459899,4.68260031 39.1380592,4.71072368 C39.4504803,4.78882895 39.7775461,4.83520395 40.0948487,4.89622368 C41.2931568,5.10428969 42.4794542,5.37642109 43.6486382,5.71144737 C44.7323487,6.04583553 45.7989737,6.38510526 46.8655987,6.76586842 C48.8155061,7.49579445 50.6878801,8.41808173 52.4550066,9.51907895 C54.8516839,10.9834104 57.0705271,12.7206442 59.0671053,14.6959934 C59.5682807,15.1841513 60.0564386,15.6869539 60.5315789,16.2044013 C57.7837109,15.2151693 54.7711653,15.2507028 52.0473947,16.3044737 C49.5659156,17.3017919 47.5328526,19.1691209 46.328625,21.5570526 C46.2369731,21.6887142 46.1699856,21.8359214 46.1309211,21.9915132 C46.1262892,22.0902801 46.1618022,22.1867213 46.2293813,22.2588976 C46.2969604,22.3310739 46.3908593,22.3728481 46.4897171,22.3747171 C46.8265461,22.4210921 47.1731382,22.4284145 47.5124079,22.4503816 C48.525786,22.5201666 49.5325531,22.665389 50.5243421,22.8848421 C53.3361088,23.4886668 56.0079331,24.6200097 58.3983289,26.2189605 C60.8391184,27.8445263 62.9528421,29.9362829 64.8298092,32.1891316 C65.2911184,32.74075 65.7182566,33.3216579 66.1331908,33.9098882 C66.2820789,34.1197961 66.4431711,34.5054408 66.7433882,34.5054408 C67.1085955,34.4802003 67.4710771,34.4246851 67.8270987,34.3394671 C69.3085303,34.0830247 70.8098369,33.9588687 72.3132697,33.9684671 C75.2690658,33.9904342 78.1711645,34.5274079 80.8438289,35.8381118 C81.9316927,36.3777326 82.9586158,37.032345 83.9070197,37.7907434 C84.1999145,38.0226184 84.4781645,38.2789013 84.7637368,38.5229803 C84.8523847,38.6155164 84.951496,38.6974265 85.0590724,38.7670592 C85.3031513,38.8988618 85.4398355,38.6791908 85.5057368,38.4790461 C86.2472892,36.2489925 86.0517399,33.8134345 84.9638816,31.7302632 C83.7621518,29.5190786 81.7595307,27.8518289 79.3671513,27.0707961 C78.7633188,26.868755 78.1424594,26.7217093 77.5121513,26.6314539 C80.131475,26.2246527 82.8091823,26.4233725 85.3397632,27.2123618 C86.5237909,27.5906962 87.6768313,28.0599094 88.7885987,28.6158158 C90.8120132,29.5921316 92.6255197,30.9345658 94.4024145,32.2989671 C94.6757829,32.5113158 94.9345066,32.7334276 95.1981118,32.9579803 C95.4617171,33.1825329 95.7570526,33.4314934 96.0377434,33.6658092 C96.2427697,33.8342237 96.5259013,34.0465724 96.7455724,33.7487961 C96.8170375,33.5964621 96.8489375,33.4285674 96.8383224,33.2606382 C96.8651711,32.9579803 96.8822566,32.6577632 96.8872034,32.3575461 C96.889263,31.6502786 96.8395001,30.9438082 96.73825,30.2438224 L96.73825,30.2438224 Z" id="Path" fill="#577138"></path>
            <path d="M64.3709408,47.3635197 C65.8960874,47.6653973 67.3699324,48.1849009 68.7472763,48.9060987 L68.3396645,34.2613618 C68.1663684,34.2857697 67.9930724,34.3077368 67.8222171,34.3394671 C67.4661955,34.4246851 67.1037139,34.4802003 66.7385066,34.5054408 C66.4382895,34.5054408 66.2771974,34.1197961 66.1283092,33.9098882 C65.8012434,33.4436974 65.4595329,32.9897105 65.1056184,32.5430461 C64.6825005,35.9313579 63.940463,39.2721607 62.8893816,42.5209934 C63.5478508,44.0801421 64.0443129,45.702845 64.3709408,47.3635197 Z" id="Path" fill="#5E3108"></path>
            <circle id="Oval" fill="#5E3108" cx="41.3054803" cy="51.4664868" r="9.76315789"></circle>
            <path d="M123.699211,108.026901 C121.480787,106.817069 118.988981,106.196849 116.46227,106.225599 C111.251321,106.157864 106.421487,108.948413 103.877559,113.496711 C101.40193,118.069337 101.457278,123.594921 104.024007,128.117039 C105.272291,130.264822 107.082307,132.031803 109.2595,133.228053 C111.467264,134.433305 113.947077,135.052628 116.46227,135.026914 C119.090742,135.061845 121.677551,134.368256 123.935967,133.023026 C126.089315,131.753358 127.865334,129.932685 129.081151,127.74848 C131.556781,123.175854 131.501433,117.65027 128.934704,113.128151 C127.685021,110.983962 125.875131,109.220479 123.699211,108.026901 L123.699211,108.026901 Z M124.861026,126.04725 C124.049717,127.55982 122.835818,128.81849 121.353612,129.684026 C119.869106,130.536065 118.183567,130.975148 116.472033,130.955678 C112.898924,131.027712 109.60229,129.040427 107.997612,125.847105 C107.184312,124.229223 106.77242,122.439335 106.796743,120.628697 C106.762514,118.754113 107.206909,116.901766 108.087921,115.246757 C108.891603,113.727134 110.10057,112.459872 111.580691,111.585572 C114.679066,109.832141 118.477911,109.866575 121.543993,111.675882 C123.009945,112.578728 124.195668,113.871784 124.968421,115.410289 C125.781993,117.028074 126.1939,118.818029 126.169289,120.628697 C126.20641,122.517331 125.755811,124.383617 124.861026,126.04725 Z" id="Shape" fill="#577138"></path>
            <path d="M147.228421,106.808947 L136.135033,134.448447 L140.755447,134.448447 L143.664868,126.701382 L155.446559,126.701382 L158.35598,134.448447 L163.193625,134.448447 L152.100237,106.808947 L147.228421,106.808947 Z M145.009743,123.101217 L149.520322,111.026632 L154.065072,123.101217 L145.009743,123.101217 Z" id="Shape" fill="#577138"></path>
            <path d="M185.595191,120.609171 C184.293436,119.774421 182.503524,118.992555 180.225454,118.263572 C179.127361,117.938588 178.057266,117.525569 177.025579,117.028533 C176.382344,116.729455 175.820586,116.279881 175.387809,115.717829 C175.026685,115.15512 174.849282,114.494125 174.880125,113.826217 C174.880125,112.639993 175.328417,111.731206 176.225,111.099855 C177.121583,110.468504 178.418456,110.153643 180.115618,110.15527 C181.35993,110.168892 182.596583,110.352008 183.791447,110.699566 C185.027876,111.041994 186.217985,111.533775 187.335474,112.164039 L188.028658,108.200197 C186.836145,107.557024 185.564139,107.073662 184.245434,106.762572 C182.853574,106.417055 181.425236,106.240049 179.991138,106.235362 C178.249857,106.200591 176.520801,106.533262 174.916737,107.211678 C173.577825,107.768997 172.428487,108.701351 171.607026,109.896546 C170.838282,111.066654 170.439414,112.441006 170.462296,113.840862 C170.462296,116.000147 171.092833,117.721717 172.353908,119.005572 C173.614982,120.289428 175.748232,121.404868 178.753658,122.351895 C181.057763,123.07925 182.628004,123.776502 183.464382,124.443651 C184.281104,125.070303 184.747689,126.050674 184.718947,127.079704 C184.765594,128.272557 184.186353,129.403279 183.191013,130.062349 C182.174018,130.765296 180.731511,131.11677 178.863493,131.11677 C177.397556,131.101408 175.94096,130.881234 174.535974,130.462638 C173.105183,130.068459 171.734709,129.481348 170.462296,128.717474 L169.957053,132.778947 C170.974048,133.429825 172.337636,133.969239 174.047816,134.397191 C175.682734,134.812296 177.36222,135.026227 179.048993,135.034237 C181.164344,135.034237 182.989241,134.700662 184.523684,134.033513 C185.945292,133.460965 187.170398,132.488511 188.050625,131.233928 C188.873177,130.003161 189.299072,128.550006 189.27102,127.069941 C189.298607,125.804923 189.004672,124.553598 188.416743,123.433164 C187.843971,122.388507 186.903454,121.447175 185.595191,120.609171 Z" id="Path" fill="#577138"></path>
            <rect id="Rectangle" fill="#577138" x="199.087875" y="106.808947" width="4.54719079" height="27.6395"></rect>
            <path d="M231.508882,123.428283 C230.939364,122.386879 229.99966,121.447175 228.68977,120.609171 C227.379879,119.771167 225.585899,118.9893 223.307829,118.263572 C222.209736,117.938588 221.139641,117.525569 220.107954,117.028533 C219.464719,116.729455 218.902961,116.279881 218.470184,115.717829 C218.10906,115.15512 217.931657,114.494125 217.9625,113.826217 C217.9625,112.639993 218.410792,111.731206 219.307375,111.099855 C220.203958,110.468504 221.500831,110.153643 223.197993,110.15527 C224.448035,110.167338 225.690541,110.35047 226.890908,110.699566 C228.127337,111.041994 229.317446,111.533775 230.434934,112.164039 L231.128118,108.200197 C229.935795,107.55661 228.663733,107.073226 227.344895,106.762572 C225.952642,106.41357 224.523467,106.233284 223.088158,106.225599 C221.346876,106.190828 219.617821,106.523499 218.013757,107.201914 C216.674845,107.759234 215.525507,108.691588 214.704046,109.886783 C213.939685,111.056607 213.544283,112.429034 213.569079,113.826217 C213.569079,115.985502 214.199616,117.707072 215.460691,118.990928 C216.721765,120.274783 218.855015,121.390224 221.860441,122.33725 C224.164546,123.064605 225.734787,123.761857 226.571164,124.429007 C227.387887,125.055658 227.854472,126.03603 227.82573,127.065059 C227.872376,128.257913 227.293136,129.388634 226.297796,130.047704 C225.2808,130.750651 223.838294,131.102125 221.970276,131.102125 C220.504339,131.086763 219.047743,130.86659 217.642757,130.447993 C216.211966,130.053814 214.841492,129.466703 213.569079,128.702829 L213.051632,132.778947 C214.068627,133.429825 215.433029,133.969239 217.144836,134.397191 C218.778898,134.812434 220.457593,135.02637 222.143572,135.034237 C224.258923,135.034237 226.08382,134.700662 227.618263,134.033513 C229.039604,133.459235 230.263888,132.485065 231.142763,131.229046 C231.965315,129.998279 232.39121,128.545124 232.363158,127.065059 C232.390745,125.800041 232.09681,124.548717 231.508882,123.428283 L231.508882,123.428283 Z" id="Path" fill="#577138"></path>
            <path d="M58.3812434,20.0999013 C53.2238553,18.1057763 47.6002763,20.6612829 47.6564145,21.1567632 C47.7076711,21.61075 52.4842961,20.0754934 57.5733421,22.2575592 C64.0804868,25.0449408 66.3089276,31.8571842 66.6823684,31.6350724 C67.0973026,31.3934342 65.0616842,22.6822566 58.3812434,20.0999013 Z" id="Path" fill="#A3B34F"></path>
            <path d="M53.5924145,4.98653289 C47.9785987,2.51889474 42.0474803,3.16082237 41.9547303,3.72464474 C41.8619803,4.28846711 48.4521118,4.45688158 55.1349934,8.58425658 C63.9218355,14.0223355 66.6726053,22.5675395 67.0069934,22.3722763 C67.4072829,22.1379605 63.9486842,9.54104605 53.5924145,4.98653289 Z" id="Path" fill="#A3B34F"></path>
            <path d="M81.0342105,21.5765789 C74.5856447,21.7571974 69.7553224,27.2392105 70.0042829,27.6541447 C70.2312763,28.0300263 74.4977763,23.9929605 80.6607697,23.9148553 C89.2035329,23.8001382 95.0882763,31.3495 95.3860526,30.9931447 C95.6838289,30.6367895 89.5989408,21.3373816 81.0342105,21.5765789 Z" id="Path" fill="#A3B34F"></path>
            <path d="M79.4379342,30.6929276 C73.7679803,28.1203355 67.8759145,32.4478553 67.9881908,32.8408224 C68.0833816,33.1703289 72.4279868,30.9687368 77.6171053,32.3746316 C80.8194211,33.2435526 83.1845461,35.1717763 84.8149934,36.9071776 C84.5684737,36.1651776 83.243125,32.416125 79.4379342,30.6929276 Z" id="Path" fill="#A3B34F"></path>
        </g>
    </g>
</svg>